<svg xmlns="http://www.w3.org/2000/svg" width="340" height="196" viewBox="86 158 340 196" role="img" aria-label="CostCraft">
  <defs>
    <linearGradient id="inf" x1="100" y1="256" x2="412" y2="256" gradientUnits="userSpaceOnUse">
      <stop offset="0" stop-color="#a3b768"/>
      <stop offset="0.5" stop-color="#57bd97"/>
      <stop offset="1" stop-color="#2bb6c4"/>
    </linearGradient>
    <linearGradient id="bars" x1="0" y1="1" x2="0" y2="0">
      <stop offset="0" stop-color="#8fae5b"/>
      <stop offset="1" stop-color="#f0e7c2"/>
    </linearGradient>
  </defs>
  <path d="M256,256 C204,182 104,182 104,256 C104,330 204,330 256,256 C308,182 408,182 408,256 C408,330 308,330 256,256 Z"
        fill="none" stroke="url(#inf)" stroke-width="22" stroke-linecap="round" stroke-linejoin="round"/>
  <g fill="#f0e7c2">
    <path d="M146,252 a32 30 0 0 0 64 0 Z"/>
    <rect x="150" y="246" width="60" height="7" rx="3.5"/>
    <g transform="rotate(22 190 232)">
      <rect x="186" y="214" width="8" height="34" rx="4"/>
      <ellipse cx="190" cy="212" rx="9" ry="12"/>
    </g>
  </g>
  <g fill="url(#bars)">
    <rect x="308" y="258" width="15" height="26" rx="3"/>
    <rect x="327" y="240" width="15" height="44" rx="3"/>
    <rect x="346" y="222" width="15" height="62" rx="3"/>
  </g>
</svg>
